<?xml version="1.0" encoding="UTF-8" ?>
<!DOCTYPE svg PUBLIC "-//W3C//DTD SVG 1.1//EN" "http://www.w3.org/Graphics/SVG/1.1/DTD/svg11.dtd">
<svg width="192pt" height="47pt" viewBox="0 0 192 47" version="1.1" xmlns="http://www.w3.org/2000/svg">
<g id="#003158ff">
<path fill="#003158" opacity="1.00" d=" M 181.20 0.00 L 186.51 0.00 C 186.71 12.02 186.29 24.05 186.69 36.06 C 186.77 38.91 189.71 39.93 191.82 41.03 C 191.83 42.77 191.82 44.51 191.79 46.25 C 186.47 45.67 181.28 41.67 181.22 35.98 C 181.08 23.99 181.19 11.99 181.20 0.00 Z" />
<path fill="#003158" opacity="1.00" d=" M 69.31 4.97 C 71.65 4.56 74.05 4.73 76.42 4.70 C 80.92 14.81 84.97 25.12 89.24 35.33 C 90.99 33.16 91.67 30.40 92.79 27.90 C 96.14 20.19 99.13 12.33 102.64 4.69 C 105.03 4.75 107.42 4.73 109.82 4.76 C 109.83 18.56 109.85 32.36 109.81 46.16 C 108.10 46.17 106.40 46.17 104.70 46.18 C 104.61 34.99 104.81 23.79 104.61 12.60 C 100.09 22.82 96.00 33.23 91.65 43.52 C 91.20 44.93 90.15 45.98 88.91 46.75 C 83.68 35.61 79.60 23.96 74.48 12.78 C 74.23 23.91 74.48 35.05 74.36 46.18 C 72.66 46.17 70.96 46.17 69.26 46.16 C 69.26 32.43 69.14 18.70 69.31 4.97 Z" />
<path fill="#003158" opacity="1.00" d=" M 127.97 7.27 C 129.75 7.23 131.53 7.25 133.31 7.38 C 133.23 9.52 133.21 11.66 133.15 13.80 C 135.63 13.80 138.12 13.87 140.59 14.13 C 140.51 15.84 140.47 17.55 140.37 19.26 C 137.98 19.23 135.59 19.20 133.20 19.18 C 133.41 25.24 132.82 31.34 133.51 37.37 C 134.17 40.64 137.82 41.31 140.60 41.56 C 140.60 43.19 140.59 44.81 140.57 46.44 C 137.11 46.37 133.25 45.95 130.83 43.17 C 127.18 39.41 127.76 33.78 127.74 28.98 C 127.94 21.74 127.41 14.47 127.97 7.27 Z" />
<path fill="#003158" opacity="1.00" d=" M 0.29 16.02 C 0.33 11.05 6.36 7.01 10.91 9.32 C 16.19 11.93 21.12 15.19 26.31 17.98 C 28.05 18.97 29.82 19.92 31.51 21.01 C 33.12 22.97 34.70 25.37 34.23 28.05 C 33.74 29.91 32.68 31.56 31.70 33.20 C 29.98 32.27 28.25 31.37 26.57 30.38 C 27.42 29.13 29.38 28.07 28.74 26.29 C 28.27 25.04 26.91 24.51 25.90 23.76 C 24.23 22.78 22.52 21.88 20.83 20.94 C 16.51 18.76 12.66 15.55 8.03 14.09 C 4.80 14.05 5.55 17.96 5.43 20.06 C 5.71 26.42 4.99 32.85 5.82 39.17 C 6.94 39.83 8.32 40.19 9.53 39.52 C 13.52 37.67 17.16 35.13 21.03 33.06 C 22.71 34.13 24.45 35.09 26.18 36.09 C 21.35 38.93 16.54 41.83 11.59 44.46 C 6.94 47.24 0.24 43.34 0.28 37.95 C 0.19 30.65 0.17 23.33 0.29 16.02 Z" />
<path fill="#003158" opacity="1.00" d=" M 149.83 16.79 C 155.42 11.97 164.54 12.02 170.02 17.00 C 174.38 20.49 176.00 26.13 176.46 31.47 C 167.20 31.65 157.94 31.44 148.68 31.59 C 149.63 36.03 152.40 40.45 157.02 41.69 C 161.98 43.43 167.57 40.81 169.94 36.24 C 171.82 36.24 173.71 36.23 175.60 36.24 C 174.28 39.17 172.68 42.15 169.96 44.02 C 162.65 49.18 151.10 47.37 146.29 39.61 C 141.47 32.54 143.05 22.03 149.83 16.79 M 148.97 26.57 C 156.12 26.93 163.28 26.69 170.44 26.71 C 168.87 22.26 165.12 17.88 159.99 18.17 C 154.73 17.71 150.86 22.17 148.97 26.57 Z" />
<path fill="#003158" opacity="1.00" d=" M 115.77 14.19 C 117.62 14.18 119.48 14.17 121.34 14.17 C 121.30 24.86 121.33 35.55 121.33 46.25 C 119.48 46.25 117.63 46.25 115.78 46.25 C 115.77 35.56 115.80 24.88 115.77 14.19 Z" />
</g>
<g id="#169fdaff">
<path fill="#169fda" opacity="1.00" d=" M 116.36 4.53 C 119.90 2.11 123.81 7.87 119.89 9.92 C 116.56 12.40 113.01 6.52 116.36 4.53 Z" />
<path fill="#169fda" opacity="1.00" d=" M 41.05 9.54 C 45.67 6.77 52.21 10.76 52.34 16.01 C 52.47 23.00 52.37 30.00 52.39 36.99 C 52.75 41.21 49.15 45.10 44.99 45.37 C 42.72 45.63 40.70 44.38 38.79 43.34 C 34.62 40.86 30.39 38.49 26.18 36.09 C 24.45 35.09 22.71 34.13 21.03 33.06 C 17.41 29.84 17.80 24.40 20.83 20.94 C 22.52 21.88 24.23 22.78 25.90 23.76 C 25.39 24.37 24.38 25.59 23.87 26.20 C 22.73 28.29 25.32 29.28 26.57 30.38 C 28.25 31.37 29.98 32.27 31.70 33.20 C 36.66 35.37 40.81 39.98 46.54 39.88 C 47.16 36.63 47.30 33.31 47.23 30.01 C 47.08 24.71 47.65 19.35 46.50 14.13 C 40.75 14.17 36.53 18.80 31.51 21.01 C 29.82 19.92 28.05 18.97 26.31 17.98 C 31.22 15.18 36.09 12.27 41.05 9.54 Z" />
</g>
</svg>
